<?xml version="1.0" encoding="utf-8"?>
<!-- Generator: Adobe Illustrator 17.0.0, SVG Export Plug-In . SVG Version: 6.00 Build 0)  -->
<!DOCTYPE svg PUBLIC "-//W3C//DTD SVG 1.1//EN" "http://www.w3.org/Graphics/SVG/1.1/DTD/svg11.dtd">
<svg version="1.1" id="Слой_1" xmlns="http://www.w3.org/2000/svg" xmlns:xlink="http://www.w3.org/1999/xlink" x="0px" y="0px"
	 width="20px" height="20px" viewBox="0 0 20 20" enable-background="new 0 0 20 20" xml:space="preserve">
<g>
	<path fill-rule="evenodd" clip-rule="evenodd" fill="#757575" d="M18.6,16.65l-3.71-3.72c0.89-1.29,1.34-2.72,1.34-4.31
		c0-1.03-0.2-2.02-0.6-2.96C15.22,4.73,14.69,3.92,14,3.23c-0.68-0.69-1.49-1.22-2.43-1.62C10.63,1.2,9.64,1,8.61,1
		S6.59,1.2,5.65,1.61C4.71,2.01,3.9,2.54,3.22,3.23C2.53,3.92,2,4.73,1.6,5.66C1.19,6.6,1,7.59,1,8.62s0.19,2.02,0.6,2.96
		c0.4,0.95,0.93,1.76,1.62,2.43c0.68,0.69,1.49,1.22,2.43,1.63c0.94,0.4,1.93,0.59,2.96,0.59c1.59,0,3.03-0.44,4.32-1.34l3.71,3.71
		c0.26,0.26,0.58,0.4,0.98,0.4c0.36,0,0.68-0.14,0.97-0.4c0.27-0.29,0.41-0.61,0.41-0.98C19,17.23,18.86,16.91,18.6,16.65z
		 M8.61,13.47c-1.33,0-2.47-0.48-3.42-1.43C4.24,11.1,3.77,9.95,3.77,8.62S4.24,6.15,5.19,5.2s2.09-1.42,3.42-1.42
		s2.48,0.47,3.42,1.42c0.95,0.95,1.43,2.09,1.43,3.42s-0.48,2.48-1.43,3.42C11.09,12.99,9.94,13.47,8.61,13.47z"/>
</g>
</svg>
